<mxfile host="app.diagrams.net" modified="2022-02-05T19:35:26.202Z" agent="5.0 (X11; Linux x86_64) AppleWebKit/537.36 (KHTML, like Gecko) Chrome/96.0.4664.110 Safari/537.36" etag="rtQ5Zz0beHuUnorSXvaI" version="16.5.3" type="github" pages="3">
  <diagram id="R2lEEEUBdFMjLlhIrx00" name="Page-1">
    <mxGraphModel dx="826" dy="400" grid="1" gridSize="10" guides="1" tooltips="1" connect="1" arrows="1" fold="1" page="1" pageScale="1" pageWidth="850" pageHeight="1100" background="#ffffff" math="0" shadow="1" extFonts="Permanent Marker^https://fonts.googleapis.com/css?family=Permanent+Marker">
      <root>
        <mxCell id="0" />
        <mxCell id="1" parent="0" />
        <mxCell id="xinwLkwRoc6qMGtVqNxR-2" value="Diseases Prediction&lt;br&gt;" style="shape=umlLifeline;participant=umlActor;perimeter=lifelinePerimeter;whiteSpace=wrap;html=1;container=1;collapsible=0;recursiveResize=0;verticalAlign=top;spacingTop=36;outlineConnect=0;size=40;" parent="1" vertex="1">
          <mxGeometry x="30" y="160" width="20" height="520" as="geometry" />
        </mxCell>
        <mxCell id="xinwLkwRoc6qMGtVqNxR-7" value="" style="html=1;points=[];perimeter=orthogonalPerimeter;fillColor=#FFD966;" parent="xinwLkwRoc6qMGtVqNxR-2" vertex="1">
          <mxGeometry x="5" y="100" width="10" height="80" as="geometry" />
        </mxCell>
        <mxCell id="xinwLkwRoc6qMGtVqNxR-13" value="" style="html=1;points=[];perimeter=orthogonalPerimeter;fillColor=#FFD966;" parent="xinwLkwRoc6qMGtVqNxR-2" vertex="1">
          <mxGeometry x="5" y="200" width="10" height="240" as="geometry" />
        </mxCell>
        <mxCell id="xinwLkwRoc6qMGtVqNxR-5" value="Prediction" style="shape=umlLifeline;perimeter=lifelinePerimeter;whiteSpace=wrap;html=1;container=1;collapsible=0;recursiveResize=0;outlineConnect=0;fillColor=#B5739D;" parent="1" vertex="1">
          <mxGeometry x="145" y="155.5" width="100" height="524.5" as="geometry" />
        </mxCell>
        <mxCell id="xinwLkwRoc6qMGtVqNxR-9" value="User Request for Prediction" style="html=1;verticalAlign=bottom;endArrow=block;entryX=0;entryY=0;rounded=0;" parent="1" source="xinwLkwRoc6qMGtVqNxR-2" target="xinwLkwRoc6qMGtVqNxR-8" edge="1">
          <mxGeometry relative="1" as="geometry">
            <mxPoint x="180" y="240" as="sourcePoint" />
          </mxGeometry>
        </mxCell>
        <mxCell id="xinwLkwRoc6qMGtVqNxR-10" value="Diseases parameter&lt;br&gt;&amp;nbsp;Form open" style="html=1;verticalAlign=bottom;endArrow=open;dashed=1;endSize=8;exitX=0;exitY=0.95;rounded=0;" parent="1" source="xinwLkwRoc6qMGtVqNxR-8" target="xinwLkwRoc6qMGtVqNxR-2" edge="1">
          <mxGeometry relative="1" as="geometry">
            <mxPoint x="180" y="316" as="targetPoint" />
          </mxGeometry>
        </mxCell>
        <mxCell id="xinwLkwRoc6qMGtVqNxR-14" value="Validation" style="shape=umlLifeline;perimeter=lifelinePerimeter;whiteSpace=wrap;html=1;container=1;collapsible=0;recursiveResize=0;outlineConnect=0;fillColor=#B5739D;" parent="1" vertex="1">
          <mxGeometry x="320" y="160" width="100" height="520" as="geometry" />
        </mxCell>
        <mxCell id="xinwLkwRoc6qMGtVqNxR-17" value="" style="html=1;points=[];perimeter=orthogonalPerimeter;fillColor=#FFD966;strokeColor=#d6b656;" parent="xinwLkwRoc6qMGtVqNxR-14" vertex="1">
          <mxGeometry x="45" y="210" width="10" height="80" as="geometry" />
        </mxCell>
        <mxCell id="xinwLkwRoc6qMGtVqNxR-19" value="&amp;nbsp;Data&amp;nbsp; Validated" style="html=1;verticalAlign=bottom;endArrow=open;dashed=1;endSize=8;exitX=0;exitY=0.95;rounded=0;" parent="1" source="xinwLkwRoc6qMGtVqNxR-17" target="xinwLkwRoc6qMGtVqNxR-5" edge="1">
          <mxGeometry relative="1" as="geometry">
            <mxPoint x="400" y="436" as="targetPoint" />
          </mxGeometry>
        </mxCell>
        <mxCell id="xinwLkwRoc6qMGtVqNxR-18" value="Send data for Validation" style="html=1;verticalAlign=bottom;endArrow=block;entryX=0;entryY=0;rounded=0;" parent="1" source="xinwLkwRoc6qMGtVqNxR-5" target="xinwLkwRoc6qMGtVqNxR-17" edge="1">
          <mxGeometry relative="1" as="geometry">
            <mxPoint x="400" y="360" as="sourcePoint" />
          </mxGeometry>
        </mxCell>
        <mxCell id="xinwLkwRoc6qMGtVqNxR-22" value="Enter required Data&amp;nbsp;" style="html=1;verticalAlign=bottom;endArrow=block;entryX=0;entryY=0;rounded=0;exitX=1;exitY=0.087;exitDx=0;exitDy=0;exitPerimeter=0;" parent="1" source="xinwLkwRoc6qMGtVqNxR-13" target="xinwLkwRoc6qMGtVqNxR-21" edge="1">
          <mxGeometry relative="1" as="geometry">
            <mxPoint x="195" y="360" as="sourcePoint" />
          </mxGeometry>
        </mxCell>
        <mxCell id="xinwLkwRoc6qMGtVqNxR-29" value="Trained Model ANN" style="shape=umlLifeline;perimeter=lifelinePerimeter;whiteSpace=wrap;html=1;container=1;collapsible=0;recursiveResize=0;outlineConnect=0;fillColor=#B5739D;" parent="1" vertex="1">
          <mxGeometry x="480" y="160" width="100" height="520" as="geometry" />
        </mxCell>
        <mxCell id="xinwLkwRoc6qMGtVqNxR-30" value="" style="html=1;points=[];perimeter=orthogonalPerimeter;fillColor=#FFD966;" parent="xinwLkwRoc6qMGtVqNxR-29" vertex="1">
          <mxGeometry x="45" y="310" width="10" height="80" as="geometry" />
        </mxCell>
        <mxCell id="xinwLkwRoc6qMGtVqNxR-32" value="Result by ANN" style="html=1;verticalAlign=bottom;endArrow=open;dashed=1;endSize=8;exitX=0;exitY=0.95;rounded=0;" parent="1" source="xinwLkwRoc6qMGtVqNxR-30" target="xinwLkwRoc6qMGtVqNxR-5" edge="1">
          <mxGeometry relative="1" as="geometry">
            <mxPoint x="270" y="546" as="targetPoint" />
          </mxGeometry>
        </mxCell>
        <mxCell id="xinwLkwRoc6qMGtVqNxR-33" value="User Check Result sended&lt;br&gt;by ANN" style="html=1;verticalAlign=bottom;endArrow=open;dashed=1;endSize=8;rounded=0;exitX=0.2;exitY=0.568;exitDx=0;exitDy=0;exitPerimeter=0;" parent="1" source="xinwLkwRoc6qMGtVqNxR-21" target="xinwLkwRoc6qMGtVqNxR-2" edge="1">
          <mxGeometry x="-0.0769" y="-11" relative="1" as="geometry">
            <mxPoint x="260" y="570" as="sourcePoint" />
            <mxPoint x="180" y="570" as="targetPoint" />
            <Array as="points">
              <mxPoint x="130" y="540" />
            </Array>
            <mxPoint as="offset" />
          </mxGeometry>
        </mxCell>
        <mxCell id="iE61x5QEoqjEqB7M6AP7-1" value="Database" style="shape=umlLifeline;perimeter=lifelinePerimeter;whiteSpace=wrap;html=1;container=1;collapsible=0;recursiveResize=0;outlineConnect=0;fillColor=#B5739D;" parent="1" vertex="1">
          <mxGeometry x="640" y="160" width="100" height="520" as="geometry" />
        </mxCell>
        <mxCell id="iE61x5QEoqjEqB7M6AP7-4" value="" style="html=1;points=[];perimeter=orthogonalPerimeter;fillColor=#FFD966;" parent="iE61x5QEoqjEqB7M6AP7-1" vertex="1">
          <mxGeometry x="45" y="410" width="10" height="80" as="geometry" />
        </mxCell>
        <mxCell id="xinwLkwRoc6qMGtVqNxR-21" value="" style="html=1;points=[];perimeter=orthogonalPerimeter;fillColor=#FFD966;" parent="1" vertex="1">
          <mxGeometry x="190" y="380" width="10" height="280" as="geometry" />
        </mxCell>
        <mxCell id="xinwLkwRoc6qMGtVqNxR-8" value="" style="html=1;points=[];perimeter=orthogonalPerimeter;fillColor=#FFD966;" parent="1" vertex="1">
          <mxGeometry x="190" y="260" width="10" height="80" as="geometry" />
        </mxCell>
        <mxCell id="xinwLkwRoc6qMGtVqNxR-31" value="Send Data to model" style="html=1;verticalAlign=bottom;endArrow=block;rounded=0;" parent="1" edge="1">
          <mxGeometry relative="1" as="geometry">
            <mxPoint x="200" y="480" as="sourcePoint" />
            <mxPoint x="530" y="480" as="targetPoint" />
            <Array as="points">
              <mxPoint x="470" y="480" />
            </Array>
          </mxGeometry>
        </mxCell>
        <mxCell id="iE61x5QEoqjEqB7M6AP7-5" value="Store Data to the DB" style="html=1;verticalAlign=bottom;endArrow=block;entryX=0;entryY=0;rounded=0;" parent="1" source="xinwLkwRoc6qMGtVqNxR-5" target="iE61x5QEoqjEqB7M6AP7-4" edge="1">
          <mxGeometry relative="1" as="geometry">
            <mxPoint x="615" y="570" as="sourcePoint" />
          </mxGeometry>
        </mxCell>
        <mxCell id="iE61x5QEoqjEqB7M6AP7-6" value="Done" style="html=1;verticalAlign=bottom;endArrow=open;dashed=1;endSize=8;exitX=0;exitY=0.95;rounded=0;" parent="1" source="iE61x5QEoqjEqB7M6AP7-4" target="xinwLkwRoc6qMGtVqNxR-5" edge="1">
          <mxGeometry relative="1" as="geometry">
            <mxPoint x="615" y="646" as="targetPoint" />
          </mxGeometry>
        </mxCell>
      </root>
    </mxGraphModel>
  </diagram>
  <diagram id="sqfTvexERvTthfvGCHC8" name="Page-2">
    <mxGraphModel dx="1653" dy="400" grid="1" gridSize="10" guides="1" tooltips="1" connect="1" arrows="1" fold="1" page="1" pageScale="1" pageWidth="827" pageHeight="1169" math="0" shadow="0">
      <root>
        <mxCell id="hi-L1JtMN4MV8kBtpUwY-0" />
        <mxCell id="hi-L1JtMN4MV8kBtpUwY-1" parent="hi-L1JtMN4MV8kBtpUwY-0" />
        <mxCell id="IUHABfPAkNsqefhgO2Yr-0" value="Admin" style="whiteSpace=wrap;html=1;align=center;fillColor=#FFD966;" vertex="1" parent="hi-L1JtMN4MV8kBtpUwY-1">
          <mxGeometry x="410" y="600" width="100" height="40" as="geometry" />
        </mxCell>
        <mxCell id="IUHABfPAkNsqefhgO2Yr-1" value="User" style="whiteSpace=wrap;html=1;align=center;fillColor=#FFD966;" vertex="1" parent="hi-L1JtMN4MV8kBtpUwY-1">
          <mxGeometry x="40" y="600" width="100" height="40" as="geometry" />
        </mxCell>
        <mxCell id="IUHABfPAkNsqefhgO2Yr-123" value="" style="endArrow=none;html=1;rounded=0;entryX=0;entryY=0.5;entryDx=0;entryDy=0;" edge="1" parent="hi-L1JtMN4MV8kBtpUwY-1" target="IUHABfPAkNsqefhgO2Yr-1">
          <mxGeometry relative="1" as="geometry">
            <mxPoint x="-80" y="540" as="sourcePoint" />
            <mxPoint x="70" y="620" as="targetPoint" />
          </mxGeometry>
        </mxCell>
        <mxCell id="IUHABfPAkNsqefhgO2Yr-124" value="" style="endArrow=none;html=1;rounded=0;" edge="1" parent="hi-L1JtMN4MV8kBtpUwY-1">
          <mxGeometry relative="1" as="geometry">
            <mxPoint x="-30" y="620" as="sourcePoint" />
            <mxPoint x="40" y="620" as="targetPoint" />
          </mxGeometry>
        </mxCell>
        <mxCell id="IUHABfPAkNsqefhgO2Yr-125" value="User ID" style="ellipse;whiteSpace=wrap;html=1;align=center;fontStyle=4;fillColor=#CCFFCC;strokeColor=#1A1A1A;" vertex="1" parent="hi-L1JtMN4MV8kBtpUwY-1">
          <mxGeometry x="-180" y="520" width="100" height="40" as="geometry" />
        </mxCell>
        <mxCell id="IUHABfPAkNsqefhgO2Yr-127" value="" style="endArrow=none;html=1;rounded=0;entryX=0;entryY=0.5;entryDx=0;entryDy=0;" edge="1" parent="hi-L1JtMN4MV8kBtpUwY-1" target="IUHABfPAkNsqefhgO2Yr-1">
          <mxGeometry relative="1" as="geometry">
            <mxPoint x="-160" y="580" as="sourcePoint" />
            <mxPoint x="70" y="630" as="targetPoint" />
            <Array as="points">
              <mxPoint x="-50" y="580" />
            </Array>
          </mxGeometry>
        </mxCell>
        <mxCell id="IUHABfPAkNsqefhgO2Yr-129" value="user_name" style="ellipse;whiteSpace=wrap;html=1;align=center;fillColor=#B5739D;" vertex="1" parent="hi-L1JtMN4MV8kBtpUwY-1">
          <mxGeometry x="-260" y="565" width="100" height="40" as="geometry" />
        </mxCell>
        <mxCell id="IUHABfPAkNsqefhgO2Yr-130" value="user_email" style="ellipse;whiteSpace=wrap;html=1;align=center;fillColor=#B5739D;" vertex="1" parent="hi-L1JtMN4MV8kBtpUwY-1">
          <mxGeometry x="-130" y="600" width="100" height="40" as="geometry" />
        </mxCell>
        <mxCell id="IUHABfPAkNsqefhgO2Yr-131" value="" style="endArrow=none;html=1;rounded=0;entryX=0;entryY=0.5;entryDx=0;entryDy=0;" edge="1" parent="hi-L1JtMN4MV8kBtpUwY-1" target="IUHABfPAkNsqefhgO2Yr-1">
          <mxGeometry relative="1" as="geometry">
            <mxPoint x="-160" y="650" as="sourcePoint" />
            <mxPoint x="60" y="620" as="targetPoint" />
            <Array as="points">
              <mxPoint x="-50" y="650" />
            </Array>
          </mxGeometry>
        </mxCell>
        <mxCell id="IUHABfPAkNsqefhgO2Yr-132" value="user_address" style="ellipse;whiteSpace=wrap;html=1;align=center;fillColor=#B5739D;" vertex="1" parent="hi-L1JtMN4MV8kBtpUwY-1">
          <mxGeometry x="-260" y="630" width="100" height="40" as="geometry" />
        </mxCell>
        <mxCell id="IUHABfPAkNsqefhgO2Yr-133" value="" style="endArrow=none;html=1;rounded=0;" edge="1" parent="hi-L1JtMN4MV8kBtpUwY-1">
          <mxGeometry relative="1" as="geometry">
            <mxPoint x="-80" y="700" as="sourcePoint" />
            <mxPoint x="40" y="620" as="targetPoint" />
          </mxGeometry>
        </mxCell>
        <mxCell id="IUHABfPAkNsqefhgO2Yr-134" value="user_password" style="ellipse;whiteSpace=wrap;html=1;align=center;fillColor=#B5739D;" vertex="1" parent="hi-L1JtMN4MV8kBtpUwY-1">
          <mxGeometry x="-180" y="680" width="100" height="40" as="geometry" />
        </mxCell>
        <mxCell id="IUHABfPAkNsqefhgO2Yr-135" value="has" style="shape=rhombus;perimeter=rhombusPerimeter;whiteSpace=wrap;html=1;align=center;fillColor=#97D077;" vertex="1" parent="hi-L1JtMN4MV8kBtpUwY-1">
          <mxGeometry x="250" y="680" width="120" height="60" as="geometry" />
        </mxCell>
        <mxCell id="IUHABfPAkNsqefhgO2Yr-139" value="Account" style="rounded=1;arcSize=10;whiteSpace=wrap;html=1;align=center;fillColor=#97D077;" vertex="1" parent="hi-L1JtMN4MV8kBtpUwY-1">
          <mxGeometry x="260" y="780" width="100" height="40" as="geometry" />
        </mxCell>
        <mxCell id="IUHABfPAkNsqefhgO2Yr-141" value="Doctor" style="whiteSpace=wrap;html=1;align=center;fillColor=#FFD966;" vertex="1" parent="hi-L1JtMN4MV8kBtpUwY-1">
          <mxGeometry x="410" y="690" width="100" height="40" as="geometry" />
        </mxCell>
        <mxCell id="IUHABfPAkNsqefhgO2Yr-145" value="" style="fontSize=12;html=1;endArrow=ERmandOne;rounded=0;entryX=0.5;entryY=0;entryDx=0;entryDy=0;exitX=0.5;exitY=1;exitDx=0;exitDy=0;" edge="1" parent="hi-L1JtMN4MV8kBtpUwY-1" source="IUHABfPAkNsqefhgO2Yr-135" target="IUHABfPAkNsqefhgO2Yr-139">
          <mxGeometry width="100" height="100" relative="1" as="geometry">
            <mxPoint x="290" y="740" as="sourcePoint" />
            <mxPoint x="310" y="770" as="targetPoint" />
          </mxGeometry>
        </mxCell>
        <mxCell id="IUHABfPAkNsqefhgO2Yr-148" value="" style="endArrow=none;html=1;rounded=0;entryX=0;entryY=0.5;entryDx=0;entryDy=0;" edge="1" parent="hi-L1JtMN4MV8kBtpUwY-1" target="IUHABfPAkNsqefhgO2Yr-139">
          <mxGeometry relative="1" as="geometry">
            <mxPoint x="200" y="760" as="sourcePoint" />
            <mxPoint x="250" y="790" as="targetPoint" />
          </mxGeometry>
        </mxCell>
        <mxCell id="IUHABfPAkNsqefhgO2Yr-149" value="" style="endArrow=none;html=1;rounded=0;entryX=0;entryY=0.5;entryDx=0;entryDy=0;" edge="1" parent="hi-L1JtMN4MV8kBtpUwY-1" target="IUHABfPAkNsqefhgO2Yr-139">
          <mxGeometry relative="1" as="geometry">
            <mxPoint x="200" y="840" as="sourcePoint" />
            <mxPoint x="250" y="790" as="targetPoint" />
          </mxGeometry>
        </mxCell>
        <mxCell id="IUHABfPAkNsqefhgO2Yr-150" value="" style="endArrow=none;html=1;rounded=0;entryX=0;entryY=0.5;entryDx=0;entryDy=0;" edge="1" parent="hi-L1JtMN4MV8kBtpUwY-1" target="IUHABfPAkNsqefhgO2Yr-139">
          <mxGeometry relative="1" as="geometry">
            <mxPoint x="160" y="800" as="sourcePoint" />
            <mxPoint x="250" y="800" as="targetPoint" />
          </mxGeometry>
        </mxCell>
        <mxCell id="IUHABfPAkNsqefhgO2Yr-152" value="login_username" style="ellipse;whiteSpace=wrap;html=1;align=center;fillColor=#B5739D;" vertex="1" parent="hi-L1JtMN4MV8kBtpUwY-1">
          <mxGeometry x="60" y="780" width="100" height="40" as="geometry" />
        </mxCell>
        <mxCell id="IUHABfPAkNsqefhgO2Yr-153" value="login password" style="ellipse;whiteSpace=wrap;html=1;align=center;fillColor=#B5739D;" vertex="1" parent="hi-L1JtMN4MV8kBtpUwY-1">
          <mxGeometry x="100" y="820" width="100" height="40" as="geometry" />
        </mxCell>
        <mxCell id="IUHABfPAkNsqefhgO2Yr-154" value="Publish" style="shape=rhombus;perimeter=rhombusPerimeter;whiteSpace=wrap;html=1;align=center;fillColor=#97D077;" vertex="1" parent="hi-L1JtMN4MV8kBtpUwY-1">
          <mxGeometry x="250" y="930" width="120" height="60" as="geometry" />
        </mxCell>
        <mxCell id="IUHABfPAkNsqefhgO2Yr-155" value="" style="edgeStyle=orthogonalEdgeStyle;fontSize=12;html=1;endArrow=ERone;endFill=1;rounded=0;exitX=1;exitY=0.5;exitDx=0;exitDy=0;entryX=0.32;entryY=1.025;entryDx=0;entryDy=0;entryPerimeter=0;" edge="1" parent="hi-L1JtMN4MV8kBtpUwY-1" source="IUHABfPAkNsqefhgO2Yr-154" target="IUHABfPAkNsqefhgO2Yr-141">
          <mxGeometry width="100" height="100" relative="1" as="geometry">
            <mxPoint x="360" y="950" as="sourcePoint" />
            <mxPoint x="430" y="720" as="targetPoint" />
          </mxGeometry>
        </mxCell>
        <mxCell id="IUHABfPAkNsqefhgO2Yr-156" value="" style="edgeStyle=entityRelationEdgeStyle;fontSize=12;html=1;endArrow=ERone;endFill=1;rounded=0;entryX=0;entryY=0.5;entryDx=0;entryDy=0;exitX=0.5;exitY=0;exitDx=0;exitDy=0;" edge="1" parent="hi-L1JtMN4MV8kBtpUwY-1" source="IUHABfPAkNsqefhgO2Yr-135" target="IUHABfPAkNsqefhgO2Yr-0">
          <mxGeometry width="100" height="100" relative="1" as="geometry">
            <mxPoint x="250" y="680" as="sourcePoint" />
            <mxPoint x="350" y="580" as="targetPoint" />
          </mxGeometry>
        </mxCell>
        <mxCell id="IUHABfPAkNsqefhgO2Yr-157" value="" style="edgeStyle=entityRelationEdgeStyle;fontSize=12;html=1;endArrow=ERone;endFill=1;rounded=0;entryX=1;entryY=0.25;entryDx=0;entryDy=0;" edge="1" parent="hi-L1JtMN4MV8kBtpUwY-1" source="IUHABfPAkNsqefhgO2Yr-135" target="IUHABfPAkNsqefhgO2Yr-1">
          <mxGeometry width="100" height="100" relative="1" as="geometry">
            <mxPoint x="230" y="680" as="sourcePoint" />
            <mxPoint x="330" y="580" as="targetPoint" />
          </mxGeometry>
        </mxCell>
        <mxCell id="IUHABfPAkNsqefhgO2Yr-158" value="" style="fontSize=12;html=1;endArrow=ERone;endFill=1;rounded=0;entryX=0;entryY=0.5;entryDx=0;entryDy=0;" edge="1" parent="hi-L1JtMN4MV8kBtpUwY-1" source="IUHABfPAkNsqefhgO2Yr-135" target="IUHABfPAkNsqefhgO2Yr-141">
          <mxGeometry width="100" height="100" relative="1" as="geometry">
            <mxPoint x="350" y="750" as="sourcePoint" />
            <mxPoint x="450" y="650" as="targetPoint" />
          </mxGeometry>
        </mxCell>
        <mxCell id="IUHABfPAkNsqefhgO2Yr-159" value="" style="edgeStyle=orthogonalEdgeStyle;fontSize=12;html=1;endArrow=ERone;endFill=1;rounded=0;points=[[0,0,0,0,0],[0,0.25,0,0,0],[0,0.5,0,0,0],[0,0.75,0,0,0],[0,1,0,0,0],[0.25,0,0,0,0],[0.25,1,0,0,0],[0.5,0,0,0,0],[0.5,1,0,0,0],[0.75,0,0,0,0],[0.75,1,0,0,0],[1,0,0,0,0],[1,0.25,0,0,0],[1,0.5,0,0,0],[1,0.75,0,0,0],[1,1,0,0,0]];exitX=0;exitY=0.5;exitDx=0;exitDy=0;entryX=0.25;entryY=1;entryDx=0;entryDy=0;" edge="1" parent="hi-L1JtMN4MV8kBtpUwY-1" source="IUHABfPAkNsqefhgO2Yr-154" target="IUHABfPAkNsqefhgO2Yr-1">
          <mxGeometry width="100" height="100" relative="1" as="geometry">
            <mxPoint x="10" y="990" as="sourcePoint" />
            <mxPoint x="80" y="680" as="targetPoint" />
            <Array as="points">
              <mxPoint x="50" y="960" />
              <mxPoint x="50" y="680" />
              <mxPoint x="65" y="680" />
            </Array>
          </mxGeometry>
        </mxCell>
        <mxCell id="IUHABfPAkNsqefhgO2Yr-165" value="Article" style="whiteSpace=wrap;html=1;align=center;fillColor=#FFD966;" vertex="1" parent="hi-L1JtMN4MV8kBtpUwY-1">
          <mxGeometry x="260" y="1080" width="100" height="40" as="geometry" />
        </mxCell>
        <mxCell id="IUHABfPAkNsqefhgO2Yr-167" value="" style="fontSize=12;html=1;endArrow=ERzeroToMany;endFill=1;rounded=0;entryX=0.5;entryY=0;entryDx=0;entryDy=0;exitX=0.5;exitY=1;exitDx=0;exitDy=0;" edge="1" parent="hi-L1JtMN4MV8kBtpUwY-1" source="IUHABfPAkNsqefhgO2Yr-154" target="IUHABfPAkNsqefhgO2Yr-165">
          <mxGeometry width="100" height="100" relative="1" as="geometry">
            <mxPoint x="310" y="1000" as="sourcePoint" />
            <mxPoint x="310" y="1070" as="targetPoint" />
          </mxGeometry>
        </mxCell>
        <mxCell id="IUHABfPAkNsqefhgO2Yr-168" value="login ID" style="ellipse;whiteSpace=wrap;html=1;align=center;fontStyle=4;fillColor=#CCFFCC;" vertex="1" parent="hi-L1JtMN4MV8kBtpUwY-1">
          <mxGeometry x="100" y="740" width="100" height="40" as="geometry" />
        </mxCell>
      </root>
    </mxGraphModel>
  </diagram>
  <diagram id="8yNw8J1oYuzUZ1ly1NsD" name="Page-3">
    <mxGraphModel dx="826" dy="461" grid="1" gridSize="10" guides="1" tooltips="1" connect="1" arrows="1" fold="1" page="1" pageScale="1" pageWidth="827" pageHeight="1169" math="0" shadow="0">
      <root>
        <mxCell id="WC7seYlnKbCxzN5eT1_i-0" />
        <mxCell id="WC7seYlnKbCxzN5eT1_i-1" parent="WC7seYlnKbCxzN5eT1_i-0" />
        <mxCell id="WC7seYlnKbCxzN5eT1_i-3" value="" style="rounded=0;whiteSpace=wrap;html=1;fillColor=#FFFFFF;" vertex="1" parent="WC7seYlnKbCxzN5eT1_i-1">
          <mxGeometry x="70" y="80" width="1000" height="520" as="geometry" />
        </mxCell>
        <mxCell id="WC7seYlnKbCxzN5eT1_i-4" value="Data Pre processing and model Generation" style="rounded=0;whiteSpace=wrap;html=1;fillColor=#67AB9F;strokeColor=#6c8ebf;" vertex="1" parent="WC7seYlnKbCxzN5eT1_i-1">
          <mxGeometry x="60" y="90" width="490" height="50" as="geometry" />
        </mxCell>
        <mxCell id="WC7seYlnKbCxzN5eT1_i-6" value="User Interface (GUI)" style="rounded=0;whiteSpace=wrap;html=1;fillColor=#67AB9F;strokeColor=#6c8ebf;" vertex="1" parent="WC7seYlnKbCxzN5eT1_i-1">
          <mxGeometry x="560" y="90" width="190" height="50" as="geometry" />
        </mxCell>
        <mxCell id="WC7seYlnKbCxzN5eT1_i-7" value="Real time Data collection" style="rounded=0;whiteSpace=wrap;html=1;fillColor=#67AB9F;strokeColor=#6c8ebf;" vertex="1" parent="WC7seYlnKbCxzN5eT1_i-1">
          <mxGeometry x="760" y="90" width="310" height="50" as="geometry" />
        </mxCell>
        <mxCell id="WC7seYlnKbCxzN5eT1_i-9" value="" style="rounded=0;whiteSpace=wrap;html=1;fillColor=#FFFFFF;" vertex="1" parent="WC7seYlnKbCxzN5eT1_i-1">
          <mxGeometry x="80" y="150" width="470" height="440" as="geometry" />
        </mxCell>
        <mxCell id="WC7seYlnKbCxzN5eT1_i-10" value="GUI Data" style="strokeWidth=2;html=1;shape=mxgraph.flowchart.database;whiteSpace=wrap;fillColor=#97D077;" vertex="1" parent="WC7seYlnKbCxzN5eT1_i-1">
          <mxGeometry x="587.5" y="410" width="135" height="50" as="geometry" />
        </mxCell>
        <mxCell id="WC7seYlnKbCxzN5eT1_i-13" value="Prediction of cardiovascular&lt;br&gt;Diseases&amp;nbsp;" style="rounded=0;whiteSpace=wrap;html=1;fillColor=#dae8fc;strokeColor=#6c8ebf;" vertex="1" parent="WC7seYlnKbCxzN5eT1_i-1">
          <mxGeometry x="580" y="530" width="170" height="60" as="geometry" />
        </mxCell>
        <mxCell id="WC7seYlnKbCxzN5eT1_i-19" value="User Enter some basic information" style="swimlane;fontStyle=0;childLayout=stackLayout;horizontal=1;startSize=50;horizontalStack=0;resizeParent=1;resizeParentMax=0;resizeLast=0;collapsible=1;marginBottom=0;align=center;fontSize=14;fillColor=#FFFFFF;" vertex="1" parent="WC7seYlnKbCxzN5eT1_i-1">
          <mxGeometry x="820" y="220" width="220" height="300" as="geometry" />
        </mxCell>
        <mxCell id="WC7seYlnKbCxzN5eT1_i-20" value="age ," style="text;strokeColor=none;fillColor=none;spacingLeft=4;spacingRight=4;overflow=hidden;rotatable=0;points=[[0,0.5],[1,0.5]];portConstraint=eastwest;fontSize=12;" vertex="1" parent="WC7seYlnKbCxzN5eT1_i-19">
          <mxGeometry y="50" width="220" height="30" as="geometry" />
        </mxCell>
        <mxCell id="WC7seYlnKbCxzN5eT1_i-21" value="weight ," style="text;strokeColor=none;fillColor=none;spacingLeft=4;spacingRight=4;overflow=hidden;rotatable=0;points=[[0,0.5],[1,0.5]];portConstraint=eastwest;fontSize=12;" vertex="1" parent="WC7seYlnKbCxzN5eT1_i-19">
          <mxGeometry y="80" width="220" height="20" as="geometry" />
        </mxCell>
        <mxCell id="WC7seYlnKbCxzN5eT1_i-28" value="height ," style="text;strokeColor=none;fillColor=none;spacingLeft=4;spacingRight=4;overflow=hidden;rotatable=0;points=[[0,0.5],[1,0.5]];portConstraint=eastwest;fontSize=12;" vertex="1" parent="WC7seYlnKbCxzN5eT1_i-19">
          <mxGeometry y="100" width="220" height="30" as="geometry" />
        </mxCell>
        <mxCell id="WC7seYlnKbCxzN5eT1_i-25" value="trestbps (Resting blood pressure on &#xa;admission to the hospital in mm  Hg) ," style="text;strokeColor=none;fillColor=none;spacingLeft=4;spacingRight=4;overflow=hidden;rotatable=0;points=[[0,0.5],[1,0.5]];portConstraint=eastwest;fontSize=12;" vertex="1" parent="WC7seYlnKbCxzN5eT1_i-19">
          <mxGeometry y="130" width="220" height="40" as="geometry" />
        </mxCell>
        <mxCell id="WC7seYlnKbCxzN5eT1_i-26" value="chol (Serum cholesterol in mg/dl)  ," style="text;strokeColor=none;fillColor=none;spacingLeft=4;spacingRight=4;overflow=hidden;rotatable=0;points=[[0,0.5],[1,0.5]];portConstraint=eastwest;fontSize=12;" vertex="1" parent="WC7seYlnKbCxzN5eT1_i-19">
          <mxGeometry y="170" width="220" height="30" as="geometry" />
        </mxCell>
        <mxCell id="WC7seYlnKbCxzN5eT1_i-27" value="fbs (Fasting blood sugar is greater &#xa;than 120 mg/dl or not ) ," style="text;strokeColor=none;fillColor=none;spacingLeft=4;spacingRight=4;overflow=hidden;rotatable=0;points=[[0,0.5],[1,0.5]];portConstraint=eastwest;fontSize=12;" vertex="1" parent="WC7seYlnKbCxzN5eT1_i-19">
          <mxGeometry y="200" width="220" height="40" as="geometry" />
        </mxCell>
        <mxCell id="WC7seYlnKbCxzN5eT1_i-29" value="cp (Chest pain type ) ," style="text;strokeColor=none;fillColor=none;spacingLeft=4;spacingRight=4;overflow=hidden;rotatable=0;points=[[0,0.5],[1,0.5]];portConstraint=eastwest;fontSize=12;" vertex="1" parent="WC7seYlnKbCxzN5eT1_i-19">
          <mxGeometry y="240" width="220" height="30" as="geometry" />
        </mxCell>
        <mxCell id="WC7seYlnKbCxzN5eT1_i-30" value="etc" style="text;strokeColor=none;fillColor=none;spacingLeft=4;spacingRight=4;overflow=hidden;rotatable=0;points=[[0,0.5],[1,0.5]];portConstraint=eastwest;fontSize=12;" vertex="1" parent="WC7seYlnKbCxzN5eT1_i-19">
          <mxGeometry y="270" width="220" height="30" as="geometry" />
        </mxCell>
        <mxCell id="WC7seYlnKbCxzN5eT1_i-31" value="&lt;div&gt;&lt;b style=&quot;color: rgb(26 , 26 , 26)&quot;&gt;&lt;font style=&quot;font-size: 12px&quot;&gt;User Interface&lt;/font&gt;&lt;/b&gt;&lt;/div&gt;" style="rounded=1;whiteSpace=wrap;html=1;fontColor=#000099;fillColor=#FFFFFF;align=center;" vertex="1" parent="WC7seYlnKbCxzN5eT1_i-1">
          <mxGeometry x="560" y="160" width="190" height="160" as="geometry" />
        </mxCell>
        <mxCell id="WC7seYlnKbCxzN5eT1_i-36" value="" style="endArrow=classic;html=1;rounded=0;fontColor=#1A1A1A;exitX=-0.004;exitY=0.06;exitDx=0;exitDy=0;exitPerimeter=0;" edge="1" parent="WC7seYlnKbCxzN5eT1_i-1" source="WC7seYlnKbCxzN5eT1_i-19" target="WC7seYlnKbCxzN5eT1_i-31">
          <mxGeometry width="50" height="50" relative="1" as="geometry">
            <mxPoint x="750" y="270" as="sourcePoint" />
            <mxPoint x="820.7106781186548" y="220" as="targetPoint" />
          </mxGeometry>
        </mxCell>
        <mxCell id="WC7seYlnKbCxzN5eT1_i-38" value="" style="endArrow=classic;html=1;rounded=0;fontColor=#1A1A1A;exitX=0.5;exitY=1;exitDx=0;exitDy=0;" edge="1" parent="WC7seYlnKbCxzN5eT1_i-1" source="WC7seYlnKbCxzN5eT1_i-31">
          <mxGeometry width="50" height="50" relative="1" as="geometry">
            <mxPoint x="660" y="350" as="sourcePoint" />
            <mxPoint x="655" y="420" as="targetPoint" />
          </mxGeometry>
        </mxCell>
        <mxCell id="WC7seYlnKbCxzN5eT1_i-40" value="ANN" style="rounded=0;whiteSpace=wrap;html=1;fontColor=#1A1A1A;fillColor=#FFFFFF;" vertex="1" parent="WC7seYlnKbCxzN5eT1_i-1">
          <mxGeometry x="90" y="400" width="200" height="180" as="geometry" />
        </mxCell>
        <mxCell id="WC7seYlnKbCxzN5eT1_i-41" value="Model Accuracy" style="rounded=0;whiteSpace=wrap;html=1;fillColor=#dae8fc;strokeColor=#6c8ebf;" vertex="1" parent="WC7seYlnKbCxzN5eT1_i-1">
          <mxGeometry x="330" y="500" width="190" height="60" as="geometry" />
        </mxCell>
        <mxCell id="WC7seYlnKbCxzN5eT1_i-43" value="Generated prediction model" style="rounded=0;whiteSpace=wrap;html=1;fillColor=#dae8fc;strokeColor=#6c8ebf;" vertex="1" parent="WC7seYlnKbCxzN5eT1_i-1">
          <mxGeometry x="330" y="410" width="190" height="60" as="geometry" />
        </mxCell>
        <mxCell id="WC7seYlnKbCxzN5eT1_i-44" value="Handling messing Values" style="rounded=0;whiteSpace=wrap;html=1;fillColor=#dae8fc;strokeColor=#6c8ebf;" vertex="1" parent="WC7seYlnKbCxzN5eT1_i-1">
          <mxGeometry x="340" y="240" width="190" height="60" as="geometry" />
        </mxCell>
        <mxCell id="WC7seYlnKbCxzN5eT1_i-45" value="Data preprocessing" style="rounded=0;whiteSpace=wrap;html=1;fillColor=#dae8fc;strokeColor=#6c8ebf;" vertex="1" parent="WC7seYlnKbCxzN5eT1_i-1">
          <mxGeometry x="95" y="240" width="190" height="60" as="geometry" />
        </mxCell>
        <mxCell id="WC7seYlnKbCxzN5eT1_i-46" value="Data Gathring" style="strokeWidth=2;html=1;shape=mxgraph.flowchart.database;whiteSpace=wrap;fillColor=#97D077;" vertex="1" parent="WC7seYlnKbCxzN5eT1_i-1">
          <mxGeometry x="90" y="170" width="200" height="50" as="geometry" />
        </mxCell>
        <mxCell id="WC7seYlnKbCxzN5eT1_i-47" value="&lt;br&gt;Training" style="strokeWidth=2;html=1;shape=mxgraph.flowchart.database;whiteSpace=wrap;fillColor=#97D077;" vertex="1" parent="WC7seYlnKbCxzN5eT1_i-1">
          <mxGeometry x="95" y="335" width="80" height="35" as="geometry" />
        </mxCell>
        <mxCell id="WC7seYlnKbCxzN5eT1_i-48" value="&lt;br&gt;Testing" style="strokeWidth=2;html=1;shape=mxgraph.flowchart.database;whiteSpace=wrap;fillColor=#97D077;" vertex="1" parent="WC7seYlnKbCxzN5eT1_i-1">
          <mxGeometry x="230" y="340" width="80" height="30" as="geometry" />
        </mxCell>
        <mxCell id="WC7seYlnKbCxzN5eT1_i-49" value="" style="endArrow=classic;startArrow=classic;html=1;rounded=0;fontSize=12;fontColor=#1A1A1A;exitX=1;exitY=0.5;exitDx=0;exitDy=0;entryX=0;entryY=0.5;entryDx=0;entryDy=0;" edge="1" parent="WC7seYlnKbCxzN5eT1_i-1" source="WC7seYlnKbCxzN5eT1_i-45" target="WC7seYlnKbCxzN5eT1_i-44">
          <mxGeometry width="50" height="50" relative="1" as="geometry">
            <mxPoint x="290" y="300" as="sourcePoint" />
            <mxPoint x="340" y="250" as="targetPoint" />
          </mxGeometry>
        </mxCell>
        <mxCell id="WC7seYlnKbCxzN5eT1_i-50" value="" style="endArrow=classic;html=1;rounded=0;fontSize=12;fontColor=#1A1A1A;entryX=0.5;entryY=0;entryDx=0;entryDy=0;exitX=0.5;exitY=1;exitDx=0;exitDy=0;exitPerimeter=0;" edge="1" parent="WC7seYlnKbCxzN5eT1_i-1" source="WC7seYlnKbCxzN5eT1_i-46" target="WC7seYlnKbCxzN5eT1_i-45">
          <mxGeometry width="50" height="50" relative="1" as="geometry">
            <mxPoint x="170" y="260" as="sourcePoint" />
            <mxPoint x="220" y="210" as="targetPoint" />
          </mxGeometry>
        </mxCell>
        <mxCell id="WC7seYlnKbCxzN5eT1_i-51" value="" style="endArrow=classic;html=1;rounded=0;fontSize=12;fontColor=#1A1A1A;entryX=0.5;entryY=0;entryDx=0;entryDy=0;entryPerimeter=0;exitX=0.25;exitY=1;exitDx=0;exitDy=0;" edge="1" parent="WC7seYlnKbCxzN5eT1_i-1" source="WC7seYlnKbCxzN5eT1_i-45" target="WC7seYlnKbCxzN5eT1_i-47">
          <mxGeometry width="50" height="50" relative="1" as="geometry">
            <mxPoint x="200" y="230" as="sourcePoint" />
            <mxPoint x="200" y="250" as="targetPoint" />
          </mxGeometry>
        </mxCell>
        <mxCell id="WC7seYlnKbCxzN5eT1_i-52" value="" style="endArrow=classic;html=1;rounded=0;fontSize=12;fontColor=#1A1A1A;exitX=0.75;exitY=1;exitDx=0;exitDy=0;" edge="1" parent="WC7seYlnKbCxzN5eT1_i-1" source="WC7seYlnKbCxzN5eT1_i-45">
          <mxGeometry width="50" height="50" relative="1" as="geometry">
            <mxPoint x="230" y="370" as="sourcePoint" />
            <mxPoint x="250" y="340" as="targetPoint" />
          </mxGeometry>
        </mxCell>
        <mxCell id="WC7seYlnKbCxzN5eT1_i-53" value="" style="edgeStyle=elbowEdgeStyle;elbow=horizontal;endArrow=classic;html=1;rounded=0;fontSize=12;fontColor=#1A1A1A;entryX=0.321;entryY=0;entryDx=0;entryDy=0;entryPerimeter=0;exitX=1;exitY=0.5;exitDx=0;exitDy=0;exitPerimeter=0;" edge="1" parent="WC7seYlnKbCxzN5eT1_i-1" source="WC7seYlnKbCxzN5eT1_i-48" target="WC7seYlnKbCxzN5eT1_i-43">
          <mxGeometry width="50" height="50" relative="1" as="geometry">
            <mxPoint x="320" y="400" as="sourcePoint" />
            <mxPoint x="370" y="350" as="targetPoint" />
            <Array as="points">
              <mxPoint x="391" y="390" />
            </Array>
          </mxGeometry>
        </mxCell>
        <mxCell id="WC7seYlnKbCxzN5eT1_i-54" value="" style="edgeStyle=elbowEdgeStyle;endArrow=classic;html=1;rounded=0;fontSize=12;fontColor=#1A1A1A;exitX=1;exitY=0.75;exitDx=0;exitDy=0;entryX=0;entryY=0.25;entryDx=0;entryDy=0;" edge="1" parent="WC7seYlnKbCxzN5eT1_i-1" source="WC7seYlnKbCxzN5eT1_i-43" target="WC7seYlnKbCxzN5eT1_i-13">
          <mxGeometry width="50" height="50" relative="1" as="geometry">
            <mxPoint x="520" y="490" as="sourcePoint" />
            <mxPoint x="650" y="531" as="targetPoint" />
            <Array as="points">
              <mxPoint x="560" y="500" />
            </Array>
          </mxGeometry>
        </mxCell>
        <mxCell id="WC7seYlnKbCxzN5eT1_i-55" value="" style="endArrow=classic;html=1;rounded=0;fontSize=12;fontColor=#1A1A1A;exitX=0;exitY=0.5;exitDx=0;exitDy=0;exitPerimeter=0;" edge="1" parent="WC7seYlnKbCxzN5eT1_i-1" source="WC7seYlnKbCxzN5eT1_i-10">
          <mxGeometry width="50" height="50" relative="1" as="geometry">
            <mxPoint x="570" y="450" as="sourcePoint" />
            <mxPoint x="520" y="435" as="targetPoint" />
          </mxGeometry>
        </mxCell>
        <mxCell id="WC7seYlnKbCxzN5eT1_i-56" value="" style="endArrow=classic;html=1;rounded=0;fontSize=12;fontColor=#1A1A1A;exitX=1;exitY=0.339;exitDx=0;exitDy=0;exitPerimeter=0;" edge="1" parent="WC7seYlnKbCxzN5eT1_i-1" source="WC7seYlnKbCxzN5eT1_i-40">
          <mxGeometry width="50" height="50" relative="1" as="geometry">
            <mxPoint x="290" y="480" as="sourcePoint" />
            <mxPoint x="330" y="461" as="targetPoint" />
          </mxGeometry>
        </mxCell>
        <mxCell id="WC7seYlnKbCxzN5eT1_i-57" value="" style="endArrow=classic;html=1;rounded=0;fontSize=12;fontColor=#1A1A1A;" edge="1" parent="WC7seYlnKbCxzN5eT1_i-1">
          <mxGeometry width="50" height="50" relative="1" as="geometry">
            <mxPoint x="330" y="440" as="sourcePoint" />
            <mxPoint x="290" y="440" as="targetPoint" />
          </mxGeometry>
        </mxCell>
        <mxCell id="WC7seYlnKbCxzN5eT1_i-58" value="" style="endArrow=classic;html=1;rounded=0;fontSize=12;fontColor=#1A1A1A;exitX=0.5;exitY=1;exitDx=0;exitDy=0;entryX=0.5;entryY=0;entryDx=0;entryDy=0;" edge="1" parent="WC7seYlnKbCxzN5eT1_i-1" source="WC7seYlnKbCxzN5eT1_i-43" target="WC7seYlnKbCxzN5eT1_i-41">
          <mxGeometry width="50" height="50" relative="1" as="geometry">
            <mxPoint x="390" y="510" as="sourcePoint" />
            <mxPoint x="440" y="460" as="targetPoint" />
          </mxGeometry>
        </mxCell>
      </root>
    </mxGraphModel>
  </diagram>
</mxfile>
